<?xml version="1.0" standalone="no"?>
<!DOCTYPE svg PUBLIC "-//W3C//DTD SVG 20010904//EN"
 "http://www.w3.org/TR/2001/REC-SVG-20010904/DTD/svg10.dtd">
<svg version="1.0" xmlns="http://www.w3.org/2000/svg"
 width="200.000000pt" height="200.000000pt" viewBox="0 0 200.000000 200.000000"
 preserveAspectRatio="xMidYMid meet">
<metadata>
Created by potrace 1.11, written by Peter Selinger 2001-2013
</metadata>
<g transform="translate(0.000000,200.000000) scale(0.100000,-0.100000)"
fill="#000000" stroke="none">
<path d="M830 1632 c-19 -2 -39 -7 -44 -12 -5 -5 -8 -43 -7 -84 l2 -76 -38 -1
c-101 -2 -149 -24 -183 -83 -22 -39 -23 -49 -25 -261 0 -121 3 -235 8 -254 12
-47 44 -87 81 -103 32 -13 38 -15 69 -17 14 -1 17 -11 17 -55 l0 -54 -97 -4
c-66 -2 -98 -7 -101 -16 -2 -6 -8 -10 -13 -6 -5 3 -9 2 -10 -3 -3 -30 -11 -68
-15 -73 -3 -2 -22 -5 -42 -6 -120 -3 -191 -49 -247 -160 -16 -32 -32 -61 -35
-64 -3 -3 -29 -45 -56 -95 -57 -101 -90 -194 -71 -201 7 -2 447 -3 978 -2
l967 3 -23 68 c-19 57 -121 229 -145 247 -4 3 -10 15 -14 28 -12 37 -110 130
-161 152 -25 11 -64 20 -86 20 -32 0 -41 4 -48 23 -5 12 -7 24 -6 27 2 3 -5
17 -15 30 -17 23 -26 25 -119 28 l-101 4 3 51 c2 51 2 51 42 62 58 15 91 41
115 89 18 39 20 61 20 263 0 173 -3 228 -15 254 -31 71 -71 97 -162 105 l-69
6 0 75 c-1 40 -6 79 -11 84 -10 10 -265 18 -343 11z"/>
</g>
</svg>
